inDegrees=no
num_controls=7
num_derivatives=13
num_iterations=123
num_multipliers=7
num_parameters=0
num_slacks=7
num_states=26
objective=0.563135
objective_accelerations=0.007141
objective_balance=0.002839
objective_effort=0.016953
objective_height=0.526885
objective_ligament=0.009318
solver_duration=1279.087550
status=Solve_Succeeded
success=true
DataType=double
version=3
OpenSimVersion=4.5
endheader
time	/jointset/ground_pelvis/pelvis_tilt/value	/jointset/ground_pelvis/pelvis_tx/value	/jointset/ground_pelvis/pelvis_ty/value	/jointset/hip_r/hip_flexion_r/value	/jointset/hip_r/hip_adduction_r/value	/jointset/hip_r/hip_rotation_r/value	/jointset/back/lumbar_extension/value	/jointset/patellofemoral_r/patellar_flexion_r/value	/jointset/knee_r/knee_flexion_r/value	/jointset/knee_r/knee_adduction_r/value	/jointset/knee_r/knee_rotation_r/value	/jointset/ankle_r/ankle_angle_r/value	/jointset/subtalar_r/subtalar_angle_r/value	/jointset/ground_pelvis/pelvis_tilt/speed	/jointset/ground_pelvis/pelvis_tx/speed	/jointset/ground_pelvis/pelvis_ty/speed	/jointset/hip_r/hip_flexion_r/speed	/jointset/hip_r/hip_adduction_r/speed	/jointset/hip_r/hip_rotation_r/speed	/jointset/back/lumbar_extension/speed	/jointset/patellofemoral_r/patellar_flexion_r/speed	/jointset/knee_r/knee_flexion_r/speed	/jointset/knee_r/knee_adduction_r/speed	/jointset/knee_r/knee_rotation_r/speed	/jointset/ankle_r/ankle_angle_r/speed	/jointset/subtalar_r/subtalar_angle_r/speed	/forceset/tau_hip_flexion_r	/forceset/tau_hip_adduction_r	/forceset/tau_hip_rotation_r	/forceset/tau_knee_flexion_r	/forceset/tau_ankle_angle_r	/forceset/tau_subtalar_angle_r	/forceset/tau_lumbar_extension	lambda_cid13_p0	lambda_cid14_p0	lambda_cid14_p1	lambda_cid14_p2	lambda_cid14_p3	lambda_cid14_p4	lambda_cid14_p5	/jointset/ground_pelvis/pelvis_tilt/accel	/jointset/ground_pelvis/pelvis_tx/accel	/jointset/ground_pelvis/pelvis_ty/accel	/jointset/hip_r/hip_flexion_r/accel	/jointset/hip_r/hip_adduction_r/accel	/jointset/hip_r/hip_rotation_r/accel	/jointset/back/lumbar_extension/accel	/jointset/patellofemoral_r/patellar_flexion_r/accel	/jointset/knee_r/knee_flexion_r/accel	/jointset/knee_r/knee_adduction_r/accel	/jointset/knee_r/knee_rotation_r/accel	/jointset/ankle_r/ankle_angle_r/accel	/jointset/subtalar_r/subtalar_angle_r/accel	gamma_cid13_p0	gamma_cid14_p0	gamma_cid14_p1	gamma_cid14_p2	gamma_cid14_p3	gamma_cid14_p4	gamma_cid14_p5
1.5	0.01587488169813057	0.1119540820281325	0.9425250383048678	0.1862442876998406	-0.2082739230496236	-0.2487535181964542	-0.214101649663668	0.156139306114695	0.1561393061146926	0.1033794560552693	0.1744625581132691	0.1032878371822253	0.04054055926696807	-0.1361288018943072	0.02260395870929939	0.01416707384050227	-0.1222460083241861	-0.0186377396058746	-0.08303306337157007	0.6534177321012	-0.4141704209978073	-0.4141704209978154	0.1480579036374824	0.0004083747555482211	-0.197360359637111	-0.07321514998524331	0.03764043641556891	-0.0447559825661233	-0.008484258798896414	-0.1802832697881078	0.06295027296302505	-0.03616071260133841	0.04832072459791057	-41.25031124632694	-24.75473018668433	-13.11973111074972	-5.351824383125189	7.980154813222059	-690.3881255854478	59.41848390630185	-0.009597069343105108	-0.06262565473351121	-0.04135713122022554	-0.005402438193752365	-0.08513715200929882	-0.05811497741437507	0.3104016302798497	-0.1177505126547115	-0.1177505126547111	0.2323573805477859	-0.01259444687058017	-0.1705891687136567	-0.1252298864285632	2.874211732693461e-08	2.020557160785212e-08	-2.251425356259552e-07	1.494723104345009e-07	1.024026912494878e-08	3.390183557583403e-08	-2.159283650011876e-07
1.51	0.01451337002727759	0.1121769424564493	0.9426646133111676	0.1850214515873919	-0.2084649256163823	-0.24958705966894	-0.2075528334242311	0.1519921117175846	0.151992111717579	0.1048723142657633	0.1744665146644123	0.1013057392445107	0.03980175197851184	-0.1361522734402175	0.02196210634264545	0.01374524029749691	-0.1223049835486871	-0.01956416785163315	-0.08366637567086831	0.6562606006683239	-0.415211231440639	-0.4152112314406399	0.1505017850340293	0.0003821808521105531	-0.1990366050403174	-0.0745406321982392	0.04004940072516756	-0.04673894880901835	-0.008669702617070306	-0.1812982835146556	0.06616554327456237	-0.03728478059456003	0.0457084088417683	-41.1561608508401	-23.77389267243243	-13.41499187872112	-5.328949421937015	7.711405965154107	-690.0817577441879	59.61788819507088	0.004467964519170096	-0.0658659947824909	-0.04299190733182096	-0.003708670154050888	-0.09660815070087406	-0.06458064418632198	0.2584922023842423	-0.08866846990490873	-0.08866846990382198	0.2485919912055976	0.002285976754747937	-0.1627432095119878	-0.135375641307914	3.025689504024837e-08	2.143890912483312e-08	-2.359275968869325e-07	1.543554820141484e-07	1.049349877712692e-08	3.669504088606504e-08	-2.237220331835594e-07
1.52	0.01315226167331437	0.1123932041676694	0.9427998908937388	0.1837985130015869	-0.2086652349635676	-0.2504266625220193	-0.2009781359526308	0.1478362247840809	0.1478362247840788	0.1063892489846238	0.1744701928442943	0.09930755865608643	0.03904985621741108	-0.1360481385167629	0.02128421528996163	0.01330758909479865	-0.1222665029962191	-0.02049909569106218	-0.08424533949011964	0.6585939785336662	-0.4159089282757709	-0.4159089282757645	0.1528732053104749	0.0003527005020792841	-0.2005768897790395	-0.07583284451414854	0.04245836503478725	-0.04872191505191045	-0.008855146435219707	-0.1823132972411985	0.06938081358610199	-0.03840884858777807	0.04309609308564238	-41.05939791068511	-22.79427036515485	-13.70778418005891	-5.309530664686195	7.435692284266636	-689.8054456431476	59.84662849739936	0.0159242245299375	-0.06983339193956792	-0.04452066315880401	0.01408871720006289	-0.08683707074338412	-0.04724528140497739	0.208503489923573	-0.04912779111472269	-0.04912779111472363	0.2178651565274951	-0.01325173618932131	-0.1433970358168856	-0.1185759070112639	3.173153783042424e-08	2.264385927059961e-08	-2.462491583916319e-07	1.589158599173502e-07	1.073172387716685e-08	3.947227507637138e-08	-2.310006456725392e-07
1.53	0.0117928574689412	0.1126025113255719	0.9429307215222735	0.182576389479397	-0.2088749310532296	-0.2512718351761103	-0.1943826969900559	0.143675037047769	0.1436750370477617	0.1079295352432691	0.1744735997078478	0.09729464285799973	0.03828520859141479	-0.1358110495452195	0.0205714068175584	0.01285627060524761	-0.1221415539059896	-0.02144066111786223	-0.0847791932148025	0.6604061154687739	-0.416269925058932	-0.4162699250589323	0.1551696989201763	0.0003273895097017441	-0.2019822895027759	-0.07708979417012156	0.04493409221648347	-0.05080418183206428	-0.009065677952736273	-0.1834708982661234	0.07278091459359216	-0.03961608455308112	0.04043575024264297	-40.96008058652689	-21.75973988361172	-14.02706834596074	-5.285904284049581	7.139538995328329	-689.5332927132617	60.04968238874267	0.03085057484593589	-0.07287378147567841	-0.04576860082266535	0.01419710677972659	-0.09790200664580349	-0.05492348907434873	0.1544140185578241	-0.02078831869192799	-0.02078831869294293	0.2333687974542092	0.002669907483887922	-0.1355082167999328	-0.1282432494686515	3.316353726476611e-08	2.381864783445067e-08	-2.560782514052861e-07	1.631332695393286e-07	1.095400664055992e-08	4.223253995175777e-08	-2.3773201148729e-07
1.54	0.01043647402256167	0.1128045165574335	0.9430569727341185	0.1813560152684834	-0.2090940599427593	-0.2521220399816643	-0.187771767613478	0.1395119988042665	0.1395119988042631	0.1094923519048687	0.1744767215991336	0.095268393707446	0.0375081937179431	-0.135443986918503	0.01982383008177373	0.01239170575686901	-0.1219166407419479	-0.02238565566456369	-0.08525176978246403	0.6616920613340146	-0.4162790297130982	-0.4162790297131052	0.1573792859003875	0.000295706047160844	-0.2032435602724298	-0.07830629400922871	0.04740981939820936	-0.0528864486122128	-0.009276209470223546	-0.1846284992910385	0.07618101560108731	-0.04082332051837737	0.03777540739966447	-40.85829785965218	-20.72596939209996	-14.3436789897077	-5.265909984218067	6.83459057624705	-689.285445299378	60.28196319879524	0.04191895556461173	-0.07678704461594078	-0.04716993492431466	0.03408153196249517	-0.08752289472365583	-0.03498985000069371	0.1032652759501909	0.02125063468425679	0.02125063468425557	0.2004838306294474	-0.01452623022200909	-0.1145712450004597	-0.1104859436381102	3.458506121917047e-08	2.49941332994581e-08	-2.656445366735132e-07	1.669910991977562e-07	1.116802079663008e-08	4.495078745105645e-08	-2.439985575656738e-07
1.55	0.009084432725555636	0.1129988791133436	0.9431785208295083	0.1801383319657932	-0.2093226490852516	-0.252976717110731	-0.1811506531617397	0.1353505862451432	0.135350586245138	0.1110768274081756	0.1744795350597857	0.09323024172082021	0.03671922220144101	-0.134942499829465	0.0190433211650178	0.01191607922200478	-0.1216031556122963	-0.02333209127656376	-0.08567214960947167	0.6624404369902775	-0.4159436489652804	-0.4159436489652817	0.1594996198119806	0.0002649836281951707	-0.2043614414649728	-0.07948020089740401	0.04995991393908453	-0.05509911382219996	-0.009516252231351578	-0.1859561401714254	0.07979526534947469	-0.04209811067532679	0.03506470967916192	-40.7541247778875	-19.62754379267279	-14.67796504722687	-5.243489171934718	6.501228223890933	-689.0504754017687	60.5087256169612	0.05753100341373048	-0.07948450851531984	-0.04802430684689128	0.03251378732368516	-0.09819827275322444	-0.04380234096977381	0.04706490710128096	0.04864941133870097	0.04864941133954649	0.2153563511290477	0.002389292722521336	-0.106580451224503	-0.1196956965268255	3.599451559886422e-08	2.617042171579788e-08	-2.749080217133136e-07	1.704346302025275e-07	1.137250807904556e-08	4.762062362573236e-08	-2.497295504695478e-07
1.56	0.00773805978301067	0.1131852762414242	0.9432952596007333	0.1789242898711764	-0.2095607014595266	-0.2538352460964529	-0.1745247667141102	0.1311943210167982	0.1311943210167978	0.1126820158865466	0.174481988204341	0.09118167414330029	0.03591874108903328	-0.1343103160268168	0.01823074451588565	0.01142984092391159	-0.1211883991283583	-0.02427830202116715	-0.08602214111324043	0.6626464605120117	-0.4152495635571362	-0.4152495635571318	0.1615218809117663	0.0002236428274870695	-0.2053266784512489	-0.08060821319036367	0.05251000847999168	-0.05731177903218307	-0.00975629499247359	-0.1872837810517988	0.08340951509786744	-0.0433729008322704	0.03235401195868192	-40.64766877226377	-18.52942008922989	-15.00940937911676	-5.224827772755674	6.157262155515925	-688.8339021800321	60.76426486941178	0.06805829828671846	-0.08320059109127219	-0.04929228757010234	0.0543358028198052	-0.08747792124430931	-0.02091218535290645	-0.005205150955549534	0.09299156674955819	0.09299156674955766	0.180869268267945	-0.01664990657050428	-0.08404240374719676	-0.1013070245949974	3.736005869865214e-08	2.732975039613437e-08	-2.836245071273551e-07	1.735066631745862e-07	1.153506323072918e-08	5.013700078333689e-08	-2.548641353957732e-07
1.57	0.006398683972010068	0.1133633945750559	0.9434070919815358	0.1777148452499246	-0.2098082007074002	-0.25469698613547	-0.1678995751009909	0.1270467491664327	0.1270467491664307	0.1143069191922217	0.1744840231966722	0.08912420959619162	0.03510722436038496	-0.1335428836537679	0.01738805057368252	0.01093526653275556	-0.1206833793638751	-0.02522049269278964	-0.08631393409162469	0.6622987161522778	-0.4142035770518089	-0.4142035770518266	0.1634399151829014	0.0001817447470720419	-0.2061391770285772	-0.08168595650129838	0.05513056188419067	-0.05962274781647942	-0.01002928443180666	-0.1887853231834609	0.08724459455858638	-0.04474168638651231	0.02959845376461358	-40.53902181168876	-17.36616992853256	-15.37004906102384	-5.201767279315448	5.785501841646965	-688.6382532051355	60.99127068974623	0.08438171229264925	-0.08553219983608662	-0.04973456046698752	0.05115926715876515	-0.09743977595826597	-0.03148802091543269	-0.0635309722704074	0.119578727006591	0.1195787270032769	0.1944163088872035	0.001835031529349516	-0.07578816600915461	-0.1096574461211076	3.867071269855774e-08	2.846787940646678e-08	-2.916572430091978e-07	1.761143236057542e-07	1.164520321899797e-08	5.246155416960221e-08	-2.592532103499379e-07
